<svg xmlns="http://www.w3.org/2000/svg" version="1.1" xmlns:xlink="http://www.w3.org/1999/xlink" xmlns:svgjs="http://svgjs.dev/svgjs" width="1500" height="1500" viewBox="0 0 1500 1500"><rect width="1500" height="1500" fill="#f9f6ed"></rect><g transform="matrix(0.6666666666666666,0,0,0.6666666666666666,249.39393939393938,435.99032258064517)"><svg viewBox="0 0 396 248" data-background-color="#f9f6ed" preserveAspectRatio="xMidYMid meet" height="939" width="1500" xmlns="http://www.w3.org/2000/svg" xmlns:xlink="http://www.w3.org/1999/xlink"><g id="tight-bounds" transform="matrix(1,0,0,1,0.2400000000000091,0.4000000000000057)"><svg viewBox="0 0 395.52 247.2" height="247.2" width="395.52"><g><svg></svg></g><g><svg viewBox="0 0 395.52 247.2" height="247.2" width="395.52"><mask id="9957bd5e-6bbe-414d-8dc0-ba7779a6794f"><rect width="395.52" height="247.2" fill="white"></rect><g transform="matrix(1,0,0,1,67.47501945525292,37.08)" id="clone"><svg viewBox="0 0 260.56996108949414 173.04" height="173.04" width="260.56996108949414"><g><svg viewBox="0 0 260.56996108949414 173.04" height="173.04" width="260.56996108949414"><g><svg viewBox="0 0 260.56996108949414 173.04" height="173.04" width="260.56996108949414"><g><svg viewBox="0 0 260.56996108949414 173.04" height="173.04" width="260.56996108949414"><g id="SvgjsG3616"><svg viewBox="0 0 260.56996108949414 173.04" height="173.04" width="260.56996108949414" id="SvgjsSvg3615"><g><svg viewBox="0 0 260.56996108949414 173.04" height="173.04" width="260.56996108949414"><g transform="matrix(1,0,0,1,0,0)"><svg width="260.56996108949414" viewBox="-0.8999999999999999 -35.55 59.05 39.55" height="173.04" data-palette-color="#21272d"><path d="M3 0.15L3 0.15Q2.55 0.15 2.33-0.2 2.1-0.55 2.1-0.95L2.1-0.95Q2.15-1.8 2.53-1.9 2.9-2 3.4-2L3.4-2Q5-2 5.65-2.58 6.3-3.15 6.48-4.03 6.65-4.9 6.65-5.85L6.65-5.85 6.65-25.7Q6.65-26.65 6.48-27.53 6.3-28.4 5.65-28.98 5-29.55 3.4-29.55L3.4-29.55Q2.9-29.55 2.53-29.65 2.15-29.75 2.1-30.6L2.1-30.6Q2.1-31 2.33-31.35 2.55-31.7 3-31.7L3-31.7Q4.6-31.65 6.05-31.6 7.5-31.55 9-31.55L9-31.55 16.5-31.55Q17.45-31.55 18.98-31.4 20.5-31.25 22.23-30.8 23.95-30.35 25.5-29.35 27.05-28.35 28.03-26.7 29-25.05 29-22.55L29-22.55Q29-20.2 27.93-18.3 26.85-16.4 25.08-15.05 23.3-13.7 21.08-12.98 18.85-12.25 16.55-12.25L16.55-12.25Q15.45-12.25 14.15-12.4 12.85-12.55 11.55-13.05L11.55-13.05 11.55-5.85Q11.6-4.9 11.75-4.03 11.9-3.15 12.58-2.58 13.25-2 14.8-2L14.8-2Q15.35-2 15.7-1.9 16.05-1.8 16.1-0.95L16.1-0.95Q16.1-0.55 15.88-0.2 15.65 0.15 15.2 0.15L15.2 0.15Q12 0 8.95 0L8.95 0Q7.45 0 6.03 0.03 4.6 0.05 3 0.15ZM15.1-14.5L15.1-14.5Q16.25-14.5 17.68-14.88 19.1-15.25 20.43-16.13 21.75-17 22.6-18.53 23.45-20.05 23.45-22.4L23.45-22.4Q23.45-24.95 22.45-26.43 21.45-27.9 19.98-28.6 18.5-29.3 17.05-29.5 15.6-29.7 14.7-29.7L14.7-29.7Q13.5-29.7 12.8-29.45 12.1-29.2 11.83-28.38 11.55-27.55 11.55-25.85L11.55-25.85 11.55-15.05Q12.05-14.85 13-14.68 13.95-14.5 15.1-14.5ZM43.45 1L43.45 1Q38.25 1 35.45-0.83 32.65-2.65 32.65-6.2L32.65-6.2Q32.65-8 33.87-9.18 35.1-10.35 37.05-10.35L37.05-10.35Q38.35-10.3 38.87-9.7 39.4-9.1 39.4-8.8L39.4-8.8Q39.4-8.7 38.95-8.47 38.5-8.25 38.05-7.68 37.6-7.1 37.6-5.9L37.6-5.9Q37.6-3.65 39-2.33 40.4-1 43.45-1L43.45-1Q45.6-1 47.12-1.83 48.65-2.65 49.45-3.98 50.25-5.3 50.25-6.7L50.25-6.7Q50.25-8.8 49.05-10.15 47.85-11.5 45.92-12.48 44-13.45 41.85-14.35 39.7-15.25 37.77-16.4 35.85-17.55 34.6-19.28 33.35-21 33.3-23.6L33.3-23.6Q33.25-26.75 34.65-28.73 36.05-30.7 38.55-31.63 41.05-32.55 44.1-32.55L44.1-32.55Q46.35-32.55 48.52-31.9 50.7-31.25 52.12-29.88 53.55-28.5 53.55-26.25L53.55-26.25Q53.55-24.45 52.32-23.28 51.1-22.1 49.15-22.1L49.15-22.1Q47.85-22.2 47.32-22.78 46.8-23.35 46.8-23.65L46.8-23.65Q46.8-23.8 47.4-24.03 48-24.25 48.6-24.83 49.2-25.4 49.2-26.55L49.2-26.55Q49.2-28.45 47.75-29.48 46.3-30.5 44.15-30.5L44.15-30.5Q40.9-30.5 39.42-28.98 37.95-27.45 37.95-25.55L37.95-25.55Q37.95-23.7 38.95-22.55 39.95-21.4 41.95-20.3L41.95-20.3Q44.2-19.1 46.5-18.07 48.8-17.05 50.77-15.8 52.75-14.55 53.95-12.68 55.15-10.8 55.15-7.85L55.15-7.85Q55.15-5.3 53.57-3.3 52-1.3 49.35-0.15 46.7 1 43.45 1Z" opacity="1" transform="matrix(1,0,0,1,0,0)" fill="black" class="wordmark-text-0" id="SvgjsPath3614" stroke-width="5" stroke="black" stroke-linejoin="round"></path></svg></g></svg></g></svg></g></svg></g></svg></g></svg></g></svg></g></mask><g mask="url(#9957bd5e-6bbe-414d-8dc0-ba7779a6794f)"><g><path d="M100.355 247.2v0c-2.328 0-4.062-0.905-5.2-2.716-1.19-1.811-1.785-3.751-1.786-5.822v0c0.259-4.398 1.371-6.856 3.338-7.373 1.914-0.517 4.165-0.776 6.752-0.776v0c8.279 0 14.1-1.501 17.463-4.502 3.363-2.949 5.511-6.701 6.442-11.254 0.88-4.502 1.319-9.21 1.32-14.125v0-154.064c0-4.916-0.44-9.65-1.32-14.203-0.931-4.502-3.079-8.253-6.442-11.254-3.363-2.949-9.184-4.424-17.463-4.424v0c-2.587 0-4.838-0.259-6.752-0.776-1.966-0.517-3.079-2.975-3.338-7.373v0c0-2.07 0.595-4.01 1.786-5.822 1.138-1.811 2.872-2.716 5.2-2.716v0c8.279 0.259 16.17 0.517 23.672 0.776 7.503 0.259 15.135 0.388 22.896 0.388v0h58.21c4.916 0 11.332 0.388 19.249 1.164 7.865 0.776 16.273 2.328 25.224 4.657 8.9 2.328 17.36 6.08 25.38 11.254 8.02 5.174 14.566 12.03 19.636 20.568 5.019 8.538 7.529 19.274 7.529 32.21v0c0 12.159-2.768 23.155-8.305 32.986-5.588 9.831-12.962 18.239-22.12 25.224-9.21 6.985-19.559 12.341-31.046 16.066-11.539 3.777-23.258 5.666-35.159 5.666v0c-5.692 0-11.901-0.388-18.627-1.164-6.727-0.776-13.453-2.458-20.18-5.045v0 55.882c0.259 4.916 0.776 9.624 1.553 14.125 0.776 4.553 2.923 8.305 6.442 11.254 3.467 3.001 9.21 4.502 17.23 4.502v0c2.846 0 5.174 0.259 6.985 0.776 1.811 0.517 2.846 2.975 3.105 7.373v0c0 2.07-0.569 4.01-1.708 5.822-1.19 1.811-2.949 2.716-5.277 2.716v0c-16.558-0.776-32.727-1.164-48.509-1.164v0c-7.761 0-15.316 0.078-22.663 0.233-7.399 0.103-15.238 0.414-23.517 0.931zM194.267 133.496v0c5.95 0 12.625-0.983 20.025-2.95 7.347-1.914 14.462-5.148 21.344-9.701 6.83-4.502 12.444-10.711 16.842-18.628 4.398-7.865 6.597-17.877 6.597-30.036v0c0-13.194-2.587-23.62-7.761-31.279-5.174-7.606-11.564-13.22-19.171-16.842-7.658-3.622-15.238-5.95-22.741-6.985-7.503-1.035-13.582-1.552-18.239-1.552v0c-6.209 0-11.125 0.647-14.747 1.94-3.622 1.294-6.131 4.062-7.528 8.305-1.449 4.295-2.173 10.84-2.174 19.636v0 83.823c2.587 1.035 6.338 1.992 11.254 2.872 4.916 0.931 10.349 1.397 16.299 1.397z" fill="#21272d" fill-rule="nonzero" stroke="none" stroke-width="1" stroke-linecap="butt" stroke-linejoin="miter" stroke-miterlimit="10" stroke-dasharray="" stroke-dashoffset="0" font-family="none" font-weight="none" font-size="none" text-anchor="none" style="mix-blend-mode: normal" data-fill-palette-color="tertiary"></path></g></g><g transform="matrix(1,0,0,1,67.47501945525292,37.08)"><svg viewBox="0 0 260.56996108949414 173.04" height="173.04" width="260.56996108949414"><g><svg viewBox="0 0 260.56996108949414 173.04" height="173.04" width="260.56996108949414"><g><svg viewBox="0 0 260.56996108949414 173.04" height="173.04" width="260.56996108949414"><g><svg viewBox="0 0 260.56996108949414 173.04" height="173.04" width="260.56996108949414"><g id="textblocktransform"><svg viewBox="0 0 260.56996108949414 173.04" height="173.04" width="260.56996108949414" id="textblock"><g><svg viewBox="0 0 260.56996108949414 173.04" height="173.04" width="260.56996108949414"><g transform="matrix(1,0,0,1,0,0)"><svg width="260.56996108949414" viewBox="-0.8999999999999999 -35.55 59.05 39.55" height="173.04" data-palette-color="#21272d"><path d="M3 0.15L3 0.15Q2.55 0.15 2.33-0.2 2.1-0.55 2.1-0.95L2.1-0.95Q2.15-1.8 2.53-1.9 2.9-2 3.4-2L3.4-2Q5-2 5.65-2.58 6.3-3.15 6.48-4.03 6.65-4.9 6.65-5.85L6.65-5.85 6.65-25.7Q6.65-26.65 6.48-27.53 6.3-28.4 5.65-28.98 5-29.55 3.4-29.55L3.4-29.55Q2.9-29.55 2.53-29.65 2.15-29.75 2.1-30.6L2.1-30.6Q2.1-31 2.33-31.35 2.55-31.7 3-31.7L3-31.7Q4.6-31.65 6.05-31.6 7.5-31.55 9-31.55L9-31.55 16.5-31.55Q17.45-31.55 18.98-31.4 20.5-31.25 22.23-30.8 23.95-30.35 25.5-29.35 27.05-28.35 28.03-26.7 29-25.05 29-22.55L29-22.55Q29-20.2 27.93-18.3 26.85-16.4 25.08-15.05 23.3-13.7 21.08-12.98 18.85-12.25 16.55-12.25L16.55-12.25Q15.45-12.25 14.15-12.4 12.85-12.55 11.55-13.05L11.55-13.05 11.55-5.85Q11.6-4.9 11.75-4.03 11.9-3.15 12.58-2.58 13.25-2 14.8-2L14.8-2Q15.35-2 15.7-1.9 16.05-1.8 16.1-0.95L16.1-0.95Q16.1-0.55 15.88-0.2 15.65 0.15 15.2 0.15L15.2 0.15Q12 0 8.95 0L8.95 0Q7.45 0 6.03 0.03 4.6 0.05 3 0.15ZM15.1-14.5L15.1-14.5Q16.25-14.5 17.68-14.88 19.1-15.25 20.43-16.13 21.75-17 22.6-18.53 23.45-20.05 23.45-22.4L23.45-22.4Q23.45-24.95 22.45-26.43 21.45-27.9 19.98-28.6 18.5-29.3 17.05-29.5 15.6-29.7 14.7-29.7L14.7-29.7Q13.5-29.7 12.8-29.45 12.1-29.2 11.83-28.38 11.55-27.55 11.55-25.85L11.55-25.85 11.55-15.05Q12.05-14.85 13-14.68 13.95-14.5 15.1-14.5ZM43.45 1L43.45 1Q38.25 1 35.45-0.83 32.65-2.65 32.65-6.2L32.65-6.2Q32.65-8 33.87-9.18 35.1-10.35 37.05-10.35L37.05-10.35Q38.35-10.3 38.87-9.7 39.4-9.1 39.4-8.8L39.4-8.8Q39.4-8.7 38.95-8.47 38.5-8.25 38.05-7.68 37.6-7.1 37.6-5.9L37.6-5.9Q37.6-3.65 39-2.33 40.4-1 43.45-1L43.45-1Q45.6-1 47.12-1.83 48.65-2.65 49.45-3.98 50.25-5.3 50.25-6.7L50.25-6.7Q50.25-8.8 49.05-10.15 47.85-11.5 45.92-12.48 44-13.45 41.85-14.35 39.7-15.25 37.77-16.4 35.85-17.55 34.6-19.28 33.35-21 33.3-23.6L33.3-23.6Q33.25-26.75 34.65-28.73 36.05-30.7 38.55-31.63 41.05-32.55 44.1-32.55L44.1-32.55Q46.35-32.55 48.52-31.9 50.7-31.25 52.12-29.88 53.55-28.5 53.55-26.25L53.55-26.25Q53.55-24.45 52.32-23.28 51.1-22.1 49.15-22.1L49.15-22.1Q47.85-22.2 47.32-22.78 46.8-23.35 46.8-23.65L46.8-23.65Q46.8-23.8 47.4-24.03 48-24.25 48.6-24.83 49.2-25.4 49.2-26.55L49.2-26.55Q49.2-28.45 47.75-29.48 46.3-30.5 44.15-30.5L44.15-30.5Q40.9-30.5 39.42-28.98 37.95-27.45 37.95-25.55L37.95-25.55Q37.95-23.7 38.95-22.55 39.95-21.4 41.95-20.3L41.95-20.3Q44.2-19.1 46.5-18.07 48.8-17.05 50.77-15.8 52.75-14.55 53.95-12.68 55.15-10.8 55.15-7.85L55.15-7.85Q55.15-5.3 53.57-3.3 52-1.3 49.35-0.15 46.7 1 43.45 1Z" opacity="1" transform="matrix(1,0,0,1,0,0)" fill="#21272d" class="wordmark-text-0" data-fill-palette-color="primary" id="text-0"></path></svg></g></svg></g></svg></g></svg></g></svg></g></svg></g></svg></g></svg></g><defs></defs></svg><rect width="395.52" height="247.2" fill="none" stroke="none" visibility="hidden"></rect></g></svg></g></svg>